# xmcd
#
# Track frame offsets:
#	150
#	13115
#	28022
#	42425
#	51730
#	64735
#	79417
#	90210
#	102415
#	117905
#	129047
#	143210
#	153952
#	171512
#	187287
#	201160
#	217807
#	233625
#	247940
#	263970
#	282145
#	302245
#
# Disc length: 4294
#
# Revision: 3
# Processed by: cddbd v1.5.1PL0 Copyright (c) Steve Scherf et al.
# Submitted via: Axialis_AX_CDPlayer 2.6
# Normalized: r2:DSETVAR1
#
DISCID=3b10c416
DTITLE=Various Artist - The Jewel-Paula Records Story: The Blues, Rhythm and Blues \nAnd Soul Recordings - Disc 2 of 2
DYEAR=1900
DGENRE=
TTITLE0=Something Strange Is Goin' On In My House - Ted Taylor
TTITLE1=Everybody Knows About My Good Thing, Part 1 - Little Johnny Taylor
TTITLE2=How's Your Love Life Baby - Ted Taylor
TTITLE3=Quiet! Do not Disturb - Bobby Patterson
TTITLE4=It's My Fault Darling - Little Johnny Taylor
TTITLE5=Dreaming's Out Of Season - The Montclairs
TTITLE6=How Do you Spell Love - Bobby Patterson
TTITLE7=Open House At My House, Part 1 - Little Johnny Taylor
TTITLE8=She Don't Have To See You (To See Through You) - Bobby Patterson
TTITLE9=Bowlegged Woman/Knock-kneed Man - Bobby Rush
TTITLE10=Right On Jody - Bobby Patterson
TTITLE11=Walking The Floor - Little Johnny Taylor and Ted Taylor
TTITLE12=Hard Attack - Cash McCall
TTITLE13=Homewrecker - Fontella Bass
TTITLE14=Love Me Baby - Cash McCall
TTITLE15=I Can't See Myself As A One Woman Man - Little Johnny Taylor
TTITLE16=Dip My Dipper (alternate mix) - Cicero Blake
TTITLE17=Mississippi Rollin' Stone - Ike and Tina Turner
TTITLE18=Spider In My Stew - Buster Benton
TTITLE19=Jimmie - Artie "Blues Boy" White
TTITLE20=Good Woman Go Bad - Barbara Carr
TTITLE21=Cold Woman - Ernie Johnson
EXTD=
EXTT0=
EXTT1=
EXTT2=
EXTT3=
EXTT4=
EXTT5=
EXTT6=
EXTT7=
EXTT8=
EXTT9=
EXTT10=
EXTT11=
EXTT12=
EXTT13=
EXTT14=
EXTT15=
EXTT16=
EXTT17=
EXTT18=
EXTT19=
EXTT20=
EXTT21=
PLAYORDER=
